<?xml version="1.0" standalone="no"?>
<!DOCTYPE svg PUBLIC "-//W3C//DTD SVG 20010904//EN"
 "http://www.w3.org/TR/2001/REC-SVG-20010904/DTD/svg10.dtd">
<svg version="1.0" xmlns="http://www.w3.org/2000/svg"
 width="700.000000pt" height="700.000000pt" viewBox="0 0 700.000000 700.000000"
 preserveAspectRatio="xMidYMid meet">
<metadata>
Created by potrace 1.14, written by Peter Selinger 2001-2017
</metadata>
<g transform="translate(0.000000,700.000000) scale(0.100000,-0.100000)"
fill="#000000" stroke="none">
<path d="M1919 6296 c-2 -2 -35 -7 -74 -10 -59 -5 -123 -17 -228 -41 -51 -12
-150 -52 -217 -87 -211 -112 -355 -293 -445 -558 -31 -89 -68 -243 -80 -328
-3 -20 -8 -48 -10 -62 -3 -14 -7 -52 -10 -85 -3 -33 -7 -78 -10 -100 -2 -22
-7 -67 -10 -100 -3 -33 -8 -78 -10 -100 -2 -22 -7 -69 -10 -105 -4 -36 -8 -78
-10 -95 -25 -218 -25 -311 0 -473 14 -95 61 -222 123 -332 l36 -65 1 -725 c2
-696 4 -772 26 -940 53 -414 187 -726 404 -943 214 -213 517 -355 870 -407 44
-6 91 -13 105 -16 88 -15 317 -19 1130 -19 810 0 1076 5 1122 19 7 3 36 7 63
10 159 16 423 91 565 162 189 93 383 258 487 414 173 259 259 551 289 984 8
122 11 1365 3 1422 -4 34 1 51 36 115 74 135 105 233 131 409 9 65 5 215 -11
345 -3 22 -7 69 -10 105 -3 36 -8 79 -10 95 -2 17 -6 57 -10 90 -3 33 -8 78
-10 100 -3 22 -7 74 -11 115 -3 41 -8 84 -10 95 -2 11 -7 40 -10 65 -10 80
-44 228 -73 318 -140 433 -408 651 -886 719 -51 7 -3228 16 -3236 9z m747
-433 c-4 -26 -9 -74 -11 -105 -6 -62 -10 -96 -20 -198 -11 -104 -13 -120 -20
-205 -4 -44 -8 -87 -10 -96 -2 -9 -6 -52 -10 -95 -4 -43 -8 -90 -10 -104 -2
-14 -7 -56 -10 -95 -3 -38 -8 -86 -10 -105 -2 -19 -7 -66 -10 -105 -4 -38 -8
-81 -10 -95 -2 -14 -7 -61 -10 -105 -4 -44 -8 -87 -10 -95 -2 -8 -7 -53 -10
-100 -16 -204 -88 -359 -224 -481 -161 -146 -348 -205 -554 -174 -142 21 -266
81 -364 176 -155 151 -217 348 -189 604 10 98 26 256 31 320 3 33 7 76 10 95
2 19 7 64 10 100 9 103 23 207 35 265 5 22 12 56 15 75 11 63 66 214 100 275
39 70 91 128 157 173 52 36 158 79 216 88 20 3 40 8 43 10 3 1 34 6 70 10 35
3 65 8 67 9 1 1 167 3 368 4 l365 2 -5 -48z m1255 40 c3 -14 6 -47 13 -118 4
-38 9 -86 11 -105 7 -58 15 -141 20 -203 3 -31 7 -74 10 -95 3 -20 7 -71 10
-112 4 -41 8 -86 10 -100 2 -14 7 -56 10 -95 3 -38 8 -81 10 -95 2 -14 7 -57
10 -97 4 -40 8 -85 10 -100 2 -15 7 -68 10 -118 4 -49 9 -92 10 -95 2 -3 7
-46 10 -95 4 -50 11 -114 15 -144 22 -166 -26 -320 -142 -446 -178 -194 -465
-244 -712 -125 -148 71 -261 214 -300 381 -14 59 -15 213 -3 314 2 17 8 66 12
110 4 44 8 87 10 96 2 8 6 49 10 90 3 41 8 88 10 104 1 17 6 64 9 105 4 41 9
86 11 100 2 14 7 59 11 100 3 41 8 86 9 100 2 14 6 59 9 100 4 41 9 86 11 100
2 14 7 57 10 95 3 39 8 84 10 101 2 17 7 64 11 105 3 41 8 85 9 99 2 14 3 31
4 38 1 9 93 12 426 12 234 0 426 -3 426 -7z m1288 -22 c197 -44 328 -139 403
-291 45 -94 77 -188 92 -274 3 -16 10 -53 16 -81 11 -54 14 -79 26 -205 3 -41
8 -83 9 -92 4 -17 15 -124 20 -183 8 -97 17 -183 22 -205 2 -14 6 -83 9 -155
3 -105 0 -144 -15 -202 -36 -138 -114 -265 -212 -345 -174 -141 -428 -189
-633 -118 -203 70 -359 221 -435 420 -22 58 -28 93 -36 220 -3 47 -10 128 -15
180 -6 52 -13 120 -15 150 -3 30 -8 73 -10 95 -3 22 -7 65 -10 95 -5 59 -12
131 -20 220 -3 30 -8 71 -10 90 -2 19 -7 62 -10 95 -6 63 -12 130 -20 205 -3
25 -7 72 -11 105 -3 33 -7 76 -10 95 -3 28 -15 166 -16 190 0 3 0 9 1 14 0 4
176 6 394 3 350 -4 402 -7 486 -26z m-2400 -2301 c257 -250 661 -340 1009
-224 182 61 319 155 448 309 l41 49 82 -81 c208 -209 456 -319 739 -327 135
-4 324 32 441 85 35 16 66 27 69 24 14 -14 3 -1153 -13 -1233 -1 -9 -6 -44
-10 -77 -32 -287 -161 -573 -322 -714 -185 -164 -458 -262 -803 -286 -47 -4
-97 -8 -112 -10 -16 -2 -28 0 -29 3 0 4 -2 138 -4 297 -2 160 -6 306 -9 325
-24 145 -71 271 -136 364 -107 155 -295 265 -495 292 -27 3 -53 8 -57 10 -9 6
-255 5 -298 -1 -91 -12 -133 -21 -179 -37 -20 -7 -38 -12 -41 -13 -3 0 -31
-12 -62 -27 -189 -88 -323 -253 -377 -464 -31 -120 -33 -147 -36 -454 -2 -157
-4 -288 -4 -293 -1 -4 -13 -5 -28 -3 -16 2 -73 7 -128 11 -55 4 -102 8 -105
10 -3 1 -27 6 -54 9 -253 34 -498 140 -639 275 -195 185 -286 425 -333 866 -9
80 -12 1145 -4 1145 4 0 33 -11 66 -24 166 -68 357 -93 544 -72 184 20 375
103 540 235 46 37 149 143 163 167 6 10 20 -1 54 -44 26 -31 63 -73 82 -92z
m771 -1584 c89 -7 123 -14 177 -38 74 -33 128 -90 158 -166 35 -92 40 -149 40
-442 l0 -255 -455 0 -455 0 0 255 c0 140 3 284 8 319 24 188 121 291 302 320
82 13 124 17 145 14 8 -1 44 -4 80 -7z"/>
</g>
</svg>
